<svg id="Layer_1" data-name="Layer 1" xmlns="http://www.w3.org/2000/svg" viewBox="0 0 515.61 115.03"><defs><style>.cls-1{font-size:48px;fill:#e7aa3c;font-family:Chantal-BoldItalic, Chantal;font-weight:700;font-style:italic;}.cls-2{letter-spacing:-0.06em;}.cls-3{fill:#f9dcb2;}.cls-4{fill:#b3b3b3;}.cls-5{fill:#999;}.cls-6{fill:#ddbb8e;}.cls-7{fill:#fff;}.cls-8{fill:#333;}</style></defs><text class="cls-1" transform="translate(184.58 61.85)">New England<tspan x="0" y="38">He</tspan><tspan class="cls-2" x="51.84" y="38">d</tspan><tspan x="90.29" y="38">gehogs</tspan></text><path class="cls-3" d="M163.33,75.45c-.21.3-16.78,21.88-45.44,23.09v7.72a6,6,0,0,1-6.26,6A6.08,6.08,0,0,1,106,106.1V98.57H94.73v7.69a6,6,0,0,1-6.27,6,6.08,6.08,0,0,1-5.68-6.13V98.57H50.17c-.59,0-1.19,0-1.78,0v7.72a6,6,0,0,1-6.26,6,6.08,6.08,0,0,1-5.68-6.13V96.56A47,47,0,0,1,27.85,93c2.28-21.57,25.21-29.45,45-32.19A156.71,156.71,0,0,1,101,59.62a8.77,8.77,0,0,0,1.15.07L101,59.62a9.91,9.91,0,1,1,11.06-9.84s9.56-8.22,23.68-2a39,39,0,0,0,8.16,14.26A52.36,52.36,0,0,0,163.33,75.45Z"/><path class="cls-4" d="M138.57,16.83a40.16,40.16,0,0,0-2.81,31c-14.12-6.23-23.68,2-23.68,2A9.91,9.91,0,1,0,101,59.62c-9.12-.48-69.4-2.29-73.17,33.4A47.41,47.41,0,0,1,16.77,84.9,46.5,46.5,0,0,1,3.07,56.65c-.92-8.53.45-14.85,5.87-24.4L19.68,44.08s0-14,12.38-26.42L38.67,35S45.55,11.06,58.76,5.28l3.85,23.11S70,9.4,84.9,2.8l3.31,19S96.74,8,111.6,4.72l2.2,18.72s6.4-7,19.19-7A38.5,38.5,0,0,1,138.57,16.83Z"/><path class="cls-5" d="M22.69,62.33c-.09-8.58,1.89-14.74,8.22-23.71l9.53,12.82s1.37-14,14.91-25.09l4.88,17.9s9.18-23.16,22.89-27.62L84.7,40S94,21.84,109.38,16.71l1.44,19.22s9.83-12.86,24.94-14.7l.05,2.16a40.22,40.22,0,0,1,2.76-6.56,38.5,38.5,0,0,0-5.58-.42c-12.79,0-19.19,7-19.19,7L111.6,4.72C96.74,8,88.21,21.79,88.21,21.79L84.9,2.8C70,9.4,62.61,28.39,62.61,28.39L58.76,5.28C45.55,11.06,38.67,35,38.67,35L32.06,17.66C19.68,30.05,19.68,44.08,19.68,44.08L8.94,32.25C3.52,41.8,2.15,48.12,3.07,56.65A46.5,46.5,0,0,0,16.77,84.9,47.41,47.41,0,0,0,27.85,93a28.92,28.92,0,0,1,1.61-7A46.26,46.26,0,0,1,22.69,62.33Z"/><path class="cls-3" d="M71.56,98.57v7.69a6,6,0,0,1-6.26,6,6.08,6.08,0,0,1-5.68-6.13V98.57Z"/><path class="cls-6" d="M94.73,98.57v7.69a6,6,0,0,1-6.27,6,6.08,6.08,0,0,1-5.68-6.13V98.57H50.17c-.59,0-1.19,0-1.78,0v7.72a6,6,0,0,1-6.26,6,6.08,6.08,0,0,1-5.68-6.13V96.56A47.69,47.69,0,0,1,27.85,93c2.28-21.57,25.21-29.45,45-32.19h0S55.08,65.92,59.56,82.24,94.73,98.57,94.73,98.57Z"/><path class="cls-6" d="M16.77,84.9A47.41,47.41,0,0,0,27.85,93s-10.06,8.77-20.51,7.27C7.34,100.29,15,94.14,16.77,84.9Z"/><path class="cls-6" d="M117.89,98.57v7.69a6,6,0,0,1-6.26,6A6.08,6.08,0,0,1,106,106.1V98.57Z"/><path class="cls-7" d="M147.72,80.43a2.76,2.76,0,0,1-1.57-.48,61.81,61.81,0,0,1-11.25-9.8,2.8,2.8,0,0,1,4.17-3.74,56.37,56.37,0,0,0,10.22,8.91,2.79,2.79,0,0,1-1.57,5.11Z"/><path class="cls-8" d="M166,74.67a2.81,2.81,0,0,0-1.62-1.81A49.72,49.72,0,0,1,146,60.18a37.11,37.11,0,0,1-5-42,2.79,2.79,0,0,0-2-4.07c-11-1.65-18.64,1.43-23,4.12L114.38,4.4A2.8,2.8,0,0,0,111,2c-9.81,2.18-17,8.47-21.11,13.08L87.66,2.32a2.82,2.82,0,0,0-1.44-2A2.78,2.78,0,0,0,83.77.24c-9.45,4.2-16,12.85-19.8,19.26L61.52,4.81a2.81,2.81,0,0,0-1.43-2,2.78,2.78,0,0,0-2.45-.1C48.16,6.86,41.84,19,38.58,26.92l-3.9-10.26a2.8,2.8,0,0,0-4.6-1A45.27,45.27,0,0,0,17.73,37.76L11,30.37a2.8,2.8,0,0,0-4.51.49C.9,40.74-.73,47.57.28,57A49.45,49.45,0,0,0,13.69,85.79c-2,7.3-8,12.28-8.1,12.32a2.8,2.8,0,0,0,1.36,5,19.47,19.47,0,0,0,2.84.2c8.09,0,15.34-4.66,18.38-6.93a51.68,51.68,0,0,0,5.48,2.26v7.51A8.84,8.84,0,0,0,42,115a8.67,8.67,0,0,0,6.47-2.41,8.81,8.81,0,0,0,2.72-6.35v-4.89h5.63v4.73A8.84,8.84,0,0,0,65.17,115a8.69,8.69,0,0,0,6.47-2.41,8.81,8.81,0,0,0,2.72-6.35v-4.89H80v4.72A8.84,8.84,0,0,0,88.33,115a8.73,8.73,0,0,0,6.48-2.41,8.84,8.84,0,0,0,2.71-6.35v-4.89h5.63v4.72A8.84,8.84,0,0,0,111.5,115h.43a8.69,8.69,0,0,0,6-2.42,8.81,8.81,0,0,0,2.72-6.35v-5.1a64.86,64.86,0,0,0,32.23-12.24,63.17,63.17,0,0,0,12.7-11.85A2.8,2.8,0,0,0,166,74.67ZM9.53,37.06,17.61,46a2.8,2.8,0,0,0,4.87-1.87c0-.12.18-10.74,8.6-21.16l5,13.06a2.8,2.8,0,0,0,5.31-.22,78.34,78.34,0,0,1,4.9-12.21c3.19-6.35,6.74-11,10.41-13.81l3.18,19.1a2.8,2.8,0,0,0,5.37.56c.06-.16,6.08-15.19,17.59-22.33l2.64,15.19a2.79,2.79,0,0,0,5.13,1c.08-.12,6.9-10.93,18.62-15L111,23.77a2.8,2.8,0,0,0,4.85,1.55c.07-.07,6.16-6.61,18.48-6.09a43.06,43.06,0,0,0-2.52,24.25,25.45,25.45,0,0,0-17.78,1.78A12.7,12.7,0,1,0,91.49,56.65,147.26,147.26,0,0,0,66,59.12c-22.9,4.45-36.7,14.59-40.23,29.45A44,44,0,0,1,5.85,56.35C5.09,49.3,6,44.06,9.53,37.06Zm4.58,60.06A31.06,31.06,0,0,0,18.18,90a50.12,50.12,0,0,0,4.56,3.32A29.7,29.7,0,0,1,14.11,97.12Zm53.67,11.44a3.15,3.15,0,0,1-2.35.87,3.3,3.3,0,0,1-3-3.33v-4.73h6.35v4.89A3.17,3.17,0,0,1,67.78,108.56Zm46.33,0a3.14,3.14,0,0,1-2.35.87,3.29,3.29,0,0,1-3-3.33v-4.74l6.34,0v4.92A3.17,3.17,0,0,1,114.11,108.56Zm3.7-12.82-23.09,0a2.8,2.8,0,0,0-2.79,2.8v7.69a3.18,3.18,0,0,1-3.33,3.17,3.29,3.29,0,0,1-3-3.33V98.57a2.8,2.8,0,0,0-2.8-2.8H50.17l-1.68,0a2.74,2.74,0,0,0-2,.78,2.81,2.81,0,0,0-.86,2v7.72a3.17,3.17,0,0,1-1,2.3,3.14,3.14,0,0,1-2.35.87,3.29,3.29,0,0,1-3-3.33V96.56a2.79,2.79,0,0,0-2-2.68,45.33,45.33,0,0,1-6.35-2.45C36.35,60.52,92,62,100.79,62.41a12.63,12.63,0,0,0,1.38.07,2.79,2.79,0,0,0,.21-5.58l-1.17-.08a7.11,7.11,0,1,1,8.07-7,2.81,2.81,0,0,0,4.61,2.13c.33-.28,8-6.56,19.65-2a41.92,41.92,0,0,0,8.3,14,54.37,54.37,0,0,0,16.91,12.55C153.41,82.12,139.13,94.82,117.81,95.74Z"/><circle class="cls-8" cx="126.75" cy="65.22" r="2.8"/><circle class="cls-7" cx="128.97" cy="53.7" r="2.8"/><circle class="cls-7" cx="104.34" cy="47.36" r="2.8"/></svg>