<?xml version="1.0" encoding="UTF-8"?><svg id="a" xmlns="http://www.w3.org/2000/svg" viewBox="0 0 1366 768"><defs><style>.b{fill:#f9dcb2;}.c{fill:#e7aa3c;}.d{fill:#fff;}.e{fill:#999;}.f{fill:#b3b3b3;}.g{fill:#333;}.h{fill:#ddbb8e;}</style></defs><g><path class="c" d="M495.25,322.54c-2.35,5.36-5.36,12.16-8.37,20.27-1.57,4.18-10.07,6.8-13.47,6.8-.92,0-2.88-.13-4.45-1.31-2.09-1.57-6.8-7.19-10.98-12.16-1.57-1.96-3.14-3.92-4.84-5.88l-1.57,4.84c-1.7,4.97-3.53,10.33-4.97,13.08-1.31,2.35-4.05,4.58-7.58,4.58-6.41,0-9.41-6.67-8.63-10.46,.92-4.45,10.2-29.55,12.42-35.83,1.44-4.31,7.85-5.88,10.46-5.88,4.84,0,6.54,3.27,8.89,6.01,4.31,5.36,7.98,13.34,12.42,18.57,1.83-4.18,7.19-18.44,9.15-20.66,2.35-2.62,5.62-3.4,7.85-3.4,4.05,0,10.07,2.88,8.63,8.89-1.05,4.18-3.14,8.5-4.97,12.55Z"/><path class="c" d="M566.51,293.77c-7.45,1.44-14.91,2.35-22.23,4.05-3.27,6.67-9.54,21.44-13.47,30.6,4.58-1.31,9.02-2.48,13.6-2.48,8.37-.13,18.83,1.83,17.65,6.8-1.96,5.1-10.33,8.37-14.38,8.37h-1.31c-4.58,0-15.56,3.14-20.79,4.58-.13,.39-.13,.65-.26,1.05-.39,1.96-2.35,7.19-2.88,9.02,5.1-1.18,10.72-2.88,15.82-2.88s15.95,5.23,15.3,8.24c-1.57,7.58-27.2,12.16-34.52,13.99-1.96,.52-4.31,1.05-6.01,1.05-13.73,0-11.24-16.21-9.28-25.5,4.18-19.48,13.08-39.1,21.84-57.92,0-1.57-.26-3.14,.13-4.84,.39-1.96,2.22-6.15,7.32-6.8,6.8-.92,13.6-2.22,19.48-3.4,5.88-1.05,11.51-1.96,15.43-1.96,4.84,0,16.48,5.36,15.04,10.46-.52,1.96-7.85,5.88-16.47,7.58Z"/><path class="c" d="M645.61,352.87c-2.48,3.14-9.68,8.76-14.38,8.76-3.01,0-7.32-11.38-8.24-16.08-.78-4.05-1.05-11.11-1.83-15.3-4.18,5.1-21.84,27.98-24.97,29.68-2.61,1.44-6.54,2.62-9.68,2.62-1.44,0-6.54-.39-6.54-5.1,.13-4.05,.92-17.39,1.44-30.6,.52-13.6,.65-25.89,0-28.5-.13-.65-.26-1.44,0-2.22,.92-4.71,8.37-7.32,12.68-7.32,2.48,0,6.15,.52,7.85,3.66,2.35,4.18,2.61,24.06,2.48,38.18,3.79-4.71,7.98-12.03,11.38-16.87,1.57-2.09,2.75-3.53,3.01-3.92,2.75-2.48,7.98-3.79,11.38-3.79,7.32,0,8.24,4.05,9.68,9.02,1.31,4.84,1.96,12.29,2.75,17.26,6.15-9.02,12.42-20.92,18.31-30.2,3.92-6.15,6.93-12.68,15.95-12.68,2.35,0,7.06,1.31,6.01,6.01-1.05,5.1-30.86,49.56-37.26,57.4Z"/><path class="c" d="M771.65,302.01c-7.58,1.44-15.95,2.88-21.97,4.18-1.83,4.71-4.05,10.98-5.88,16.48,6.54-1.57,12.94-3.01,19.48-3.14,8.37-.13,17.39,4.71,16.34,9.68-2.09,5.1-10.2,7.06-14.25,7.06-.39,0-.78-.13-1.18-.13-4.18,0-15.43,2.48-26.02,5.1-.26,.78-1.05,4.18-1.18,5.23-.26,1.18-.65,2.35-.92,3.4,3.27-1.18,7.98-2.48,11.24-2.48,4.97,0,15.95,5.23,15.3,8.24-1.44,7.06-23.67,12.16-30.6,13.99-1.7,.39-3.66,.78-5.75,.78-15.17,0-13.34-14.12-11.11-25.1,3.27-14.91,9.41-30.07,15.82-44.72,.13-.65,.13-1.7,.26-2.62,1.31-6.15,6.67-9.28,12.68-9.28,1.05,0,2.22,.13,3.27,.26,10.46-3.4,25.89-6.41,32.56-6.41,4.58,0,15.95,5.36,14.64,10.33-.39,1.57-10.46,6.8-22.75,9.15Z"/><path class="c" d="M878.73,303.58c-5.75,15.04-12.29,29.94-16.47,45.11-1.31,5.23-11.11,8.5-15.3,8.5-1.31,0-3.27-.13-4.84-1.31-2.75-1.96-9.02-10.46-15.04-18.83-2.88-3.92-5.62-7.85-8.5-11.77-3.92,12.55-9.28,29.16-11.24,33.87-1.18,2.88-4.18,5.62-8.24,5.62-7.06,0-10.85-8.37-9.94-12.94,1.44-6.54,15.56-43.28,17.78-51.91,1.31-5.23,8.5-7.32,12.03-7.32,1.31,0,3.53,.13,5.23,1.57,1.18,1.18,8.24,10.72,15.04,20.4,3.4,4.71,6.8,9.54,9.68,13.47,4.05-13.34,10.85-34.91,14.38-41.71,1.83-3.4,5.36-4.71,8.11-4.71,7.06,0,11.64,6.67,10.46,12.81-.39,2.09-1.7,5.49-3.14,9.15Z"/><path class="c" d="M962.15,334.04c-23.27,17.39-46.94,20.66-55.7,20.66-12.16,0-19.22-6.93-22.1-15.95-.39-1.44-.39-3.14,0-4.71,4.18-19.61,47.33-48.12,64.85-48.12,4.58,0,14.91,4.58,13.73,9.94-.78,3.79-5.1,6.28-10.07,7.32-14.25,2.88-32.43,10.59-43.28,20.14-4.58,4.05-9.28,8.63-8.37,13.34,.26,1.57,3.4,2.88,6.41,2.88,14.78,0,31.51-6.67,35.04-9.28l-20,.78c-2.62,.13-10.72-.52-9.81-4.97,.39-1.57,2.62-3.14,3.92-4.05,7.71-4.97,21.18-6.93,31.9-6.93,3.53,0,18.44,5.75,16.74,14.12-.39,1.83-1.57,3.53-3.27,4.84Z"/><path class="c" d="M1020.72,365.03c-4.97,4.45-34.26,15.56-40.27,15.56-4.05,0-7.71-2.22-11.11-5.23-1.31-1.31-1.18-4.18-.65-6.93,3.01-14.25,21.57-74.27,28.5-85.9,2.22-3.53,6.15-4.97,9.02-4.97,6.15,0,9.94,4.45,8.76,9.94-2.09,9.94-19.48,52.69-23.67,72.04,7.58-1.96,17-4.71,20.14-5.75,1.44-.39,2.75-.65,4.05-.65,2.75,0,9.28,1.7,7.98,7.58-.39,1.7-1.44,3.27-2.75,4.31Z"/><path class="c" d="M1091.85,360.72c-3.79,0-9.02-1.44-10.59-5.1-.92-2.35-.13-11.51,.13-15.04-11.64,2.61-25.76,4.45-31.51,5.1-6.01,7.19-11.24,14.77-16.87,22.23-.92,1.05-12.29,8.37-14.91,8.37-3.4,0-6.67-1.96-5.49-5.88,3.79-13.86,59.75-81.46,64.46-83.94,4.58-2.22,9.28-3.27,13.08-3.27,2.75,0,7.06,.65,8.76,3.66,5.49,9.41,6.54,54.13,4.05,65.38-1.05,5.36-5.1,8.5-11.11,8.5Zm-10.59-55.96c-3.79,4.31-9.81,11.9-15.95,20.14,7.06-1.96,12.55-3.01,16.47-3.53-.13-4.84-.26-12.03-.52-16.61Z"/><path class="c" d="M1209.26,303.58c-5.75,15.04-12.29,29.94-16.47,45.11-1.31,5.23-11.11,8.5-15.3,8.5-1.31,0-3.27-.13-4.84-1.31-2.75-1.96-9.02-10.46-15.04-18.83-2.88-3.92-5.62-7.85-8.5-11.77-3.92,12.55-9.28,29.16-11.24,33.87-1.18,2.88-4.18,5.62-8.24,5.62-7.06,0-10.85-8.37-9.94-12.94,1.44-6.54,15.56-43.28,17.78-51.91,1.31-5.23,8.5-7.32,12.03-7.32,1.31,0,3.53,.13,5.23,1.57,1.18,1.18,8.24,10.72,15.04,20.4,3.4,4.71,6.8,9.54,9.68,13.47,4.05-13.34,10.85-34.91,14.38-41.71,1.83-3.4,5.36-4.71,8.11-4.71,7.06,0,11.64,6.67,10.46,12.81-.39,2.09-1.7,5.49-3.14,9.15Z"/><path class="c" d="M1229,360.19c-1.31,.26-2.48,.52-3.79,.52-6.41,0-7.84-4.71-6.93-8.76,.26-1.57,.92-3.14,1.7-4.71-.65-3.14,0-7.32,.78-10.98,2.35-11.11,8.24-27.46,13.47-38.05-2.48-2.35-4.84-5.62-4.45-7.32,.65-3.01,3.53-5.49,8.11-5.75,7.71-.39,15.69-.65,23.4-.65,24.19,0,49.42,2.09,56.22,7.06,4.97,3.53,10.98,8.11,9.15,16.87-4.05,19.22-94.79,51.12-97.67,51.78Zm33.34-59.62c-5.49,0-9.02,.13-9.94,.52-1.05,.52-6.67,17.52-9.67,31.25-.26,1.18-.52,2.48-.65,3.53,14.64-4.97,61.58-21.84,64.85-30.47-4.97-2.35-28.5-4.84-44.59-4.84Z"/><path class="c" d="M585.34,408.92c-4.97,12.42-9.28,24.97-13.86,37.53-3.4,9.42-7.06,18.44-8.5,20.01-2.09,2.22-4.71,2.88-6.54,2.88-3.53,0-12.16-4.31-10.85-10.07,.26-1.31,2.22-7.32,3.27-10.85l-12.03,1.96c-.26,.78-1.44,4.45-1.7,5.36-.13,1.18-.39,2.09-.52,3.01-.65,2.75-2.22,7.71-8.89,7.71-3.14,0-9.54-1.44-10.98-6.15-.52-1.57-.13-4.45,.52-7.71,2.75-12.94,13.99-45.5,19.35-50.73,2.09-1.96,4.45-2.48,6.28-2.48,5.23,0,11.11,4.84,10.2,10.07-.92,5.62-5.88,17.91-8.24,24.19,4.05-.65,8.76-1.44,12.16-1.7,.52-3.53,4.31-12.55,5.62-16.08,3.53-9.94,8.11-21.84,10.46-25.37,2.22-3.14,5.75-3.53,7.06-3.53,4.05,0,12.81,3.79,11.38,10.2-.39,1.96-2.22,6.8-4.18,11.77Z"/><path class="c" d="M652.15,397.28c-7.45,1.44-14.91,2.35-22.23,4.05-3.27,6.67-9.54,21.44-13.47,30.6,4.58-1.31,9.02-2.48,13.6-2.48,8.37-.13,18.83,1.83,17.65,6.8-1.96,5.1-10.33,8.37-14.38,8.37h-1.31c-4.58,0-15.56,3.14-20.79,4.58-.13,.39-.13,.65-.26,1.05-.39,1.96-2.35,7.19-2.88,9.02,5.1-1.18,10.72-2.88,15.82-2.88s15.95,5.23,15.3,8.24c-1.57,7.58-27.2,12.16-34.52,13.99-1.96,.52-4.31,1.05-6.01,1.05-13.73,0-11.24-16.21-9.28-25.5,4.18-19.48,13.08-39.09,21.84-57.92,0-1.57-.26-3.14,.13-4.84,.39-1.96,2.22-6.14,7.32-6.8,6.8-.92,13.6-2.22,19.48-3.4,5.88-1.05,11.51-1.96,15.43-1.96,4.84,0,16.48,5.36,15.04,10.46-.52,1.96-7.85,5.88-16.47,7.58Z"/><path class="c" d="M670.06,463.7c-1.31,.26-2.48,.52-3.79,.52-6.41,0-7.85-4.71-6.93-8.76,.26-1.57,.92-3.14,1.7-4.71-.65-3.14,0-7.32,.78-10.98,2.35-11.11,8.24-27.46,13.47-38.05-2.48-2.35-4.84-5.62-4.45-7.32,.65-3.01,3.53-5.49,8.11-5.75,7.71-.39,15.69-.65,23.4-.65,24.19,0,49.42,2.09,56.22,7.06,4.97,3.53,10.98,8.11,9.15,16.87-4.05,19.22-94.8,51.12-97.67,51.78Zm33.34-59.62c-5.49,0-9.02,.13-9.94,.52-1.05,.52-6.67,17.52-9.68,31.25-.26,1.18-.52,2.48-.65,3.53,14.64-4.97,61.58-21.83,64.85-30.46-4.97-2.35-28.5-4.84-44.59-4.84Z"/><path class="c" d="M838.46,437.55c-23.27,17.39-46.94,20.66-55.7,20.66-12.16,0-19.22-6.93-22.1-15.95-.39-1.44-.39-3.14,0-4.71,4.18-19.61,47.33-48.12,64.85-48.12,4.58,0,14.91,4.58,13.73,9.94-.78,3.79-5.1,6.28-10.07,7.32-14.25,2.88-32.43,10.59-43.28,20.14-4.58,4.05-9.28,8.63-8.37,13.34,.26,1.57,3.4,2.88,6.41,2.88,14.78,0,31.51-6.67,35.04-9.28l-20,.78c-2.62,.13-10.72-.52-9.81-4.97,.39-1.57,2.62-3.14,3.92-4.05,7.71-4.97,21.18-6.93,31.9-6.93,3.53,0,18.44,5.75,16.74,14.12-.39,1.83-1.57,3.53-3.27,4.84Z"/><path class="c" d="M909.19,397.28c-7.45,1.44-14.91,2.35-22.23,4.05-3.27,6.67-9.54,21.44-13.47,30.6,4.58-1.31,9.02-2.48,13.6-2.48,8.37-.13,18.83,1.83,17.65,6.8-1.96,5.1-10.33,8.37-14.38,8.37h-1.31c-4.58,0-15.56,3.14-20.79,4.58-.13,.39-.13,.65-.26,1.05-.39,1.96-2.35,7.19-2.88,9.02,5.1-1.18,10.72-2.88,15.82-2.88s15.95,5.23,15.3,8.24c-1.57,7.58-27.2,12.16-34.52,13.99-1.96,.52-4.31,1.05-6.01,1.05-13.73,0-11.24-16.21-9.28-25.5,4.18-19.48,13.08-39.09,21.84-57.92,0-1.57-.26-3.14,.13-4.84,.39-1.96,2.22-6.14,7.32-6.8,6.8-.92,13.6-2.22,19.48-3.4,5.88-1.05,11.51-1.96,15.43-1.96,4.84,0,16.47,5.36,15.04,10.46-.52,1.96-7.85,5.88-16.48,7.58Z"/><path class="c" d="M993.66,426.83c-1.96,5.62-12.03,36.35-15.56,40.01-1.96,2.09-4.58,2.75-6.41,2.75-4.32,0-11.51-4.84-10.85-9.41,.65-3.01,3.01-7.32,4.18-10.33l1.44-3.92-32.3,3.66c-1.7,4.97-3.14,16.08-11.64,16.08-3.53,0-8.11-2.09-9.41-6.15-.52-1.96,0-6.8,1.18-12.29,2.62-12.68,9.81-36.61,14.77-41.58,2.09-1.96,4.58-2.48,6.28-2.48,4.71,0,11.51,4.45,10.33,10.2-.52,2.48-4.05,12.81-6.41,19.87,9.54-1.7,25.37-4.18,33.47-4.84,.78-3.92,4.45-14.25,5.62-17.65,2.22-6.28,4.71-12.94,6.8-15.95,2.09-2.75,5.23-3.4,6.93-3.4,5.1,0,11.38,4.84,10.2,10.59-.65,3.27-4.45,13.47-8.63,24.84Z"/><path class="c" d="M1059.81,426.83c-4.31,13.08-23.54,29.03-38.83,29.03-14.25,0-20.66-10.72-18.44-21.31,2.62-12.29,19.09-34.13,39.62-34.13,2.22,0,6.15,.13,8.76,2.62,6.28,.65,13.21,5.23,10.33,18.7-.26,1.57-.78,3.27-1.44,5.1Zm-16.34-9.68c-8.24-.26-23.14,13.08-24.71,20.4-.13,.39-.39,1.05,.26,1.05,3.92,0,12.03-3.92,15.17-6.93,3.79-3.79,8.11-10.72,9.67-14.51h-.39Z"/><path class="c" d="M1147.02,437.55c-23.27,17.39-46.94,20.66-55.7,20.66-12.16,0-19.22-6.93-22.1-15.95-.39-1.44-.39-3.14,0-4.71,4.18-19.61,47.33-48.12,64.85-48.12,4.58,0,14.91,4.58,13.73,9.94-.78,3.79-5.1,6.28-10.07,7.32-14.25,2.88-32.43,10.59-43.28,20.14-4.58,4.05-9.28,8.63-8.37,13.34,.26,1.57,3.4,2.88,6.41,2.88,14.78,0,31.51-6.67,35.04-9.28l-20,.78c-2.62,.13-10.72-.52-9.81-4.97,.39-1.57,2.62-3.14,3.92-4.05,7.71-4.97,21.18-6.93,31.9-6.93,3.53,0,18.44,5.75,16.74,14.12-.39,1.83-1.57,3.53-3.27,4.84Z"/><path class="c" d="M1242.86,412.05c-3.53,0-4.18-1.7-8.5-1.7-13.86,0-44.72,8.63-57.14,14.64,14.64,5.23,33.08,6.54,36.87,9.15,2.09,1.44,6.67,7.32,5.49,13.21-.52,2.35-2.09,4.97-5.1,6.8-5.62,3.27-31.51,12.81-37.66,12.81-6.67,0-15.04-6.01-14.38-8.76,.26-1.44,.92-2.48,2.09-3.53,3.92-3.92,11.51-1.31,34.65-8.76-10.33-2.75-34.78-4.71-40.53-12.81-1.57-2.22-1.31-5.75-.79-8.11,.65-3.14,2.62-8.37,7.06-11.38,8.5-5.75,46.16-20.4,71-20.4,8.37,0,15.04,2.48,18.7,9.02,.52,.92,.65,1.96,.52,3.01-.92,4.31-9.02,6.8-12.29,6.8Z"/></g><g><path class="b" d="M437.76,417.57c-.54,.75-42.11,54.89-114.05,57.93v19.39c0,8.52-7.1,15.38-15.7,14.96-8.06-.37-14.26-7.31-14.26-15.39v-18.88h-28.17v19.3c0,8.52-7.11,15.38-15.71,14.96-8.05-.37-14.25-7.31-14.25-15.39v-18.88h-81.85c-1.49,0-2.98-.04-4.47-.09v19.39c0,8.52-7.1,15.38-15.7,14.96-8.06-.37-14.26-7.31-14.26-15.39v-23.94c-7.52-2.27-14.75-5.24-21.58-8.88,5.72-54.14,63.28-73.9,112.96-80.79,32.49-4.5,61.62-3.51,70.67-3.03,.95,.12,1.91,.18,2.89,.18,0,0-1.01-.07-2.89-.18-12.36-1.42-21.97-11.94-21.97-24.69,0-13.73,11.13-24.86,24.86-24.86s24.86,11.13,24.86,24.86c0,0,23.99-20.62,59.43-4.98,4.14,12.99,10.98,25.21,20.48,35.77,11.56,12.88,27.31,24.86,48.71,33.65Z"/><path class="f" d="M375.61,270.46c-12.9,24.38-15.1,52.48-7.04,77.69-35.44-15.64-59.43,4.98-59.43,4.98,0-13.73-11.12-24.86-24.86-24.86s-24.86,11.13-24.86,24.86c0,12.75,9.61,23.27,21.97,24.69-22.9-1.2-174.16-5.73-183.63,83.83-10.23-5.43-19.6-12.3-27.8-20.38-18.73-18.42-31.38-43.06-34.38-70.9-2.31-21.42,1.13-37.27,14.75-61.24l26.94,29.69s0-35.22,31.08-66.3l16.57,43.51s17.27-60.08,50.42-74.59l9.67,58.01s18.64-47.65,55.94-64.23l8.29,47.65s21.41-34.53,58.7-42.82l5.52,46.97s16.05-17.65,48.15-17.65c4.37,0,9.05,.33,14.01,1.07Z"/><path class="e" d="M84.8,384.64c-.21-21.54,4.76-36.98,20.65-59.51l23.92,32.18s3.43-35.05,37.4-62.95l12.25,44.91s23.04-58.11,57.45-69.31l3.97,58.68s23.2-45.61,61.94-58.47l3.6,48.24s24.67-32.28,62.6-36.89l.11,5.42c1.8-5.62,4.11-11.13,6.94-16.47-4.96-.74-9.64-1.07-14.01-1.07-32.1,0-48.15,17.65-48.15,17.65l-5.52-46.97c-37.3,8.29-58.7,42.82-58.7,42.82l-8.29-47.65c-37.3,16.57-55.94,64.23-55.94,64.23l-9.67-58.01c-33.15,14.5-50.42,74.59-50.42,74.59l-16.57-43.51c-31.08,31.08-31.08,66.3-31.08,66.3l-26.94-29.69c-13.62,23.97-17.06,39.83-14.75,61.24,3.01,27.84,15.66,52.48,34.38,70.9,8.2,8.07,17.57,14.95,27.8,20.38,.67-6.31,2.06-12.13,4.04-17.54-10.6-17.44-16.78-37.79-16.99-59.48Z"/><path class="b" d="M207.44,475.59v19.3c0,8.51-7.1,15.38-15.7,14.96-8.06-.37-14.26-7.31-14.26-15.39v-18.88h29.96Z"/><g><path class="h" d="M265.59,475.59v19.3c0,8.52-7.11,15.38-15.71,14.96-8.05-.37-14.25-7.31-14.25-15.39v-18.88h-81.85c-1.49,0-2.98-.04-4.47-.09v19.39c0,8.52-7.1,15.38-15.7,14.96-8.06-.37-14.26-7.31-14.26-15.39v-23.94c-7.52-2.27-14.75-5.24-21.58-8.88,5.72-54.14,63.28-73.9,112.96-80.79h.02s-44.63,12.77-33.39,53.75c11.24,40.98,88.25,40.98,88.25,40.98Z"/><path class="h" d="M69.95,441.28c8.2,8.07,17.57,14.95,27.8,20.38,0,0-25.24,22-51.46,18.25,0,0,19.21-15.45,23.65-38.63Z"/><path class="h" d="M323.72,475.59v19.3c0,8.52-7.1,15.38-15.7,14.96-8.06-.37-14.26-7.31-14.26-15.39v-18.88h29.96Z"/></g><path class="d" d="M398.57,430.07c-1.36,0-2.73-.39-3.94-1.22-10.46-7.11-19.95-15.38-28.22-24.58-2.59-2.89-2.35-7.33,.53-9.92,2.89-2.59,7.33-2.35,9.92,.53,7.51,8.36,16.14,15.88,25.66,22.36,3.21,2.18,4.04,6.55,1.86,9.76-1.36,2-3.57,3.07-5.81,3.07Z"/><g><path class="g" d="M444.51,415.61c-.6-2.06-2.1-3.73-4.08-4.54-18.44-7.57-33.97-18.28-46.15-31.84-25.71-28.61-30.71-71-12.45-105.48,1.07-2.01,1.09-4.42,.06-6.45-1.03-2.03-2.98-3.44-5.23-3.78-27.53-4.13-46.76,3.59-57.68,10.36l-4.07-34.62c-.23-1.97-1.29-3.75-2.91-4.91-1.62-1.15-3.65-1.56-5.59-1.13-24.63,5.47-42.64,21.25-52.99,32.82l-5.56-32c-.37-2.13-1.7-3.97-3.61-4.99-1.91-1.02-4.18-1.1-6.16-.22-23.71,10.54-40.16,32.23-49.69,48.33l-6.14-36.85c-.36-2.14-1.68-3.99-3.58-5.02s-4.18-1.13-6.16-.26c-23.78,10.4-39.64,40.79-47.81,60.75l-9.8-25.73c-.85-2.22-2.77-3.87-5.09-4.37-2.32-.5-4.75,.22-6.44,1.9-19.87,19.87-27.83,41.29-31.01,55.41l-16.83-18.56c-1.51-1.67-3.73-2.51-5.97-2.26-2.24,.25-4.22,1.55-5.33,3.51-14.09,24.79-18.18,41.92-15.63,65.47,3,27.75,15.13,52.95,33.64,72.36-5.03,18.33-20.17,30.82-20.32,30.94-2.18,1.75-3.11,4.63-2.37,7.33s3.01,4.7,5.78,5.09c2.4,.34,4.77,.5,7.13,.5,20.3,0,38.49-11.71,46.14-17.4,4.43,2.14,9.01,4.05,13.74,5.69v18.83c0,12.01,9.2,21.85,20.95,22.4,6.06,.28,11.85-1.87,16.24-6.06,4.33-4.13,6.82-9.94,6.82-15.92v-12.28h14.13v11.86c0,12.01,9.2,21.85,20.95,22.4,6.06,.28,11.85-1.87,16.24-6.06,4.33-4.13,6.82-9.94,6.82-15.92v-12.28h14.13v11.86c0,12.01,9.2,21.85,20.95,22.4,6.07,.28,11.85-1.87,16.24-6.06,4.33-4.13,6.82-9.94,6.82-15.92v-12.28h14.12v11.86c0,12.01,9.2,21.85,20.95,22.4,.36,.02,.72,.03,1.07,.03,5.68,0,11.03-2.14,15.17-6.08,4.33-4.13,6.82-9.94,6.82-15.92v-12.81c28.5-2.48,56.32-13.02,80.87-30.7,20.73-14.93,31.77-29.61,31.87-29.75,1.24-1.74,1.61-3.96,1.02-6.02ZM51.8,321.23l20.25,22.33c1.95,2.14,5.01,2.86,7.71,1.83,2.7-1.03,4.5-3.63,4.52-6.53,0-.29,.45-26.94,21.58-53.09l12.49,32.78c1.08,2.82,3.84,4.66,6.86,4.52,3.02-.13,5.62-2.17,6.45-5.08,.04-.14,4.23-14.58,12.3-30.64,8.01-15.93,16.91-27.71,26.12-34.66l7.99,47.94c.52,3.11,3.05,5.5,6.19,5.83,3.14,.33,6.12-1.48,7.27-4.42,.16-.41,15.28-38.12,44.14-56.06l6.63,38.12c.5,2.87,2.72,5.14,5.58,5.69,2.87,.56,5.77-.72,7.3-3.19,.18-.3,17.3-27.44,46.72-37.54l4.56,38.8c.32,2.73,2.21,5.03,4.83,5.87,2.62,.84,5.49,.07,7.34-1.96,.17-.18,15.45-16.58,46.38-15.28-8.07,19.55-10.06,40.73-6.34,60.85-19.73-4.97-35.33-.17-44.62,4.46-4.58-12-16.21-20.55-29.81-20.55-17.58,0-31.89,14.3-31.89,31.89,0,6.35,1.87,12.27,5.08,17.25-17.07,.23-40.24,1.61-63.95,6.21-57.47,11.15-92.1,36.6-100.96,73.9-27.66-17.88-46.38-47.26-50.01-80.87-1.91-17.7,.45-30.85,9.25-48.4Zm11.48,150.73c3.67-4.87,7.43-10.94,10.22-17.98,3.64,2.98,7.46,5.76,11.44,8.33-5.44,3.47-13.13,7.57-21.66,9.65Zm134.68,28.7c-1.59,1.52-3.68,2.3-5.89,2.19-4.17-.2-7.57-3.95-7.57-8.37v-11.86h15.92v12.28c0,2.2-.88,4.24-2.47,5.76Zm116.28,0c-1.59,1.52-3.69,2.3-5.89,2.19-4.17-.2-7.57-3.95-7.57-8.37v-11.88l15.92-.05v12.35c0,2.2-.88,4.24-2.47,5.76Zm9.29-32.18l-57.94,.09c-3.88,0-7.02,3.14-7.02,7.02v19.3c0,2.2-.88,4.24-2.47,5.76-1.59,1.52-3.68,2.3-5.89,2.19-4.17-.2-7.57-3.95-7.57-8.37v-18.88c0-3.88-3.14-7.02-7.02-7.02h-81.85c-1.27,0-2.65-.03-4.21-.09-1.93-.07-3.76,.64-5.13,1.96-1.37,1.32-2.15,3.15-2.15,5.06v19.39c0,2.2-.88,4.24-2.47,5.76-1.59,1.52-3.68,2.3-5.89,2.19-4.17-.2-7.57-3.95-7.57-8.37v-23.94c0-3.1-2.03-5.83-5-6.73-5.53-1.66-10.85-3.72-15.95-6.14,13.67-77.58,153.22-73.92,175.39-72.83,1.14,.12,2.3,.19,3.47,.19,3.78,0,6.88-2.99,7.02-6.76,.14-3.77-2.73-6.98-6.49-7.27-.25-.02-1.27-.09-2.96-.18-8.69-1.19-15.41-8.66-15.41-17.68,0-9.84,8-17.84,17.84-17.84s17.84,8,17.84,17.84c0,2.73,1.6,5.2,4.07,6.35,2.47,1.15,5.41,.76,7.5-1,.83-.7,20.13-16.46,49.3-5.05,4.51,12.78,11.48,24.77,20.84,35.18,11.6,12.9,25.84,23.47,42.42,31.5-13.39,14.19-49.23,46.06-102.73,48.36Z"/><circle class="g" cx="345.95" cy="391.88" r="7.02"/></g><g><circle class="d" cx="351.51" cy="362.98" r="7.02"/><circle class="d" cx="289.71" cy="347.06" r="7.02"/></g></g></svg>