<?xml version="1.0" encoding="UTF-8"?><svg id="a" xmlns="http://www.w3.org/2000/svg" viewBox="0 0 1366 768"><defs><style>.b{fill:#f9dcb2;}.c{fill:#fff;}.d{fill:#999;}.e{fill:#b3b3b3;}.f{fill:#333;}.g{fill:#ddbb8e;}.h{fill:#e7aa3c;font-family:Chantal-BoldItalic, Chantal;font-size:130.75px;}.i{letter-spacing:-.06em;}</style></defs><text class="h" transform="translate(425.3 372.09)"><tspan x="0" y="0">New England</tspan><tspan x="86.81" y="103.51">He</tspan><tspan class="i" x="228.02" y="103.51">d</tspan><tspan x="332.75" y="103.51">gehogs</tspan></text><g><path class="b" d="M437.76,417.57c-.54,.75-42.11,54.89-114.05,57.93v19.39c0,8.52-7.1,15.38-15.7,14.96-8.06-.37-14.26-7.31-14.26-15.39v-18.88h-28.17v19.3c0,8.52-7.11,15.38-15.71,14.96-8.05-.37-14.25-7.31-14.25-15.39v-18.88h-81.85c-1.49,0-2.98-.04-4.47-.09v19.39c0,8.52-7.1,15.38-15.7,14.96-8.06-.37-14.26-7.31-14.26-15.39v-23.94c-7.52-2.27-14.75-5.24-21.58-8.88,5.72-54.14,63.28-73.9,112.96-80.79,32.49-4.5,61.62-3.51,70.67-3.03,.95,.12,1.91,.18,2.89,.18,0,0-1.01-.07-2.89-.18-12.36-1.42-21.97-11.94-21.97-24.69,0-13.73,11.13-24.86,24.86-24.86s24.86,11.13,24.86,24.86c0,0,23.99-20.62,59.43-4.98,4.14,12.99,10.98,25.21,20.48,35.77,11.56,12.88,27.31,24.86,48.71,33.65Z"/><path class="e" d="M375.61,270.46c-12.9,24.38-15.1,52.48-7.04,77.69-35.44-15.64-59.43,4.98-59.43,4.98,0-13.73-11.12-24.86-24.86-24.86s-24.86,11.13-24.86,24.86c0,12.75,9.61,23.27,21.97,24.69-22.9-1.2-174.16-5.73-183.63,83.83-10.23-5.43-19.6-12.3-27.8-20.38-18.73-18.42-31.38-43.06-34.38-70.9-2.31-21.42,1.13-37.27,14.75-61.24l26.94,29.69s0-35.22,31.08-66.3l16.57,43.51s17.27-60.08,50.42-74.59l9.67,58.01s18.64-47.65,55.94-64.23l8.29,47.65s21.41-34.53,58.7-42.82l5.52,46.97s16.05-17.65,48.15-17.65c4.37,0,9.05,.33,14.01,1.07Z"/><path class="d" d="M84.8,384.64c-.21-21.54,4.76-36.98,20.65-59.51l23.92,32.18s3.43-35.05,37.4-62.95l12.25,44.91s23.04-58.11,57.45-69.31l3.97,58.68s23.2-45.61,61.94-58.47l3.6,48.24s24.67-32.28,62.6-36.89l.11,5.42c1.8-5.62,4.11-11.13,6.94-16.47-4.96-.74-9.64-1.07-14.01-1.07-32.1,0-48.15,17.65-48.15,17.65l-5.52-46.97c-37.3,8.29-58.7,42.82-58.7,42.82l-8.29-47.65c-37.3,16.57-55.94,64.23-55.94,64.23l-9.67-58.01c-33.15,14.5-50.42,74.59-50.42,74.59l-16.57-43.51c-31.08,31.08-31.08,66.3-31.08,66.3l-26.94-29.69c-13.62,23.97-17.06,39.83-14.75,61.24,3.01,27.84,15.66,52.48,34.38,70.9,8.2,8.07,17.57,14.95,27.8,20.38,.67-6.31,2.06-12.13,4.04-17.54-10.6-17.44-16.78-37.79-16.99-59.48Z"/><path class="b" d="M207.44,475.59v19.3c0,8.51-7.1,15.38-15.7,14.96-8.06-.37-14.26-7.31-14.26-15.39v-18.88h29.96Z"/><g><path class="g" d="M265.59,475.59v19.3c0,8.52-7.11,15.38-15.71,14.96-8.05-.37-14.25-7.31-14.25-15.39v-18.88h-81.85c-1.49,0-2.98-.04-4.47-.09v19.39c0,8.52-7.1,15.38-15.7,14.96-8.06-.37-14.26-7.31-14.26-15.39v-23.94c-7.52-2.27-14.75-5.24-21.58-8.88,5.72-54.14,63.28-73.9,112.96-80.79h.02s-44.63,12.77-33.39,53.75c11.24,40.98,88.25,40.98,88.25,40.98Z"/><path class="g" d="M69.95,441.28c8.2,8.07,17.57,14.95,27.8,20.38,0,0-25.24,22-51.46,18.25,0,0,19.21-15.45,23.65-38.63Z"/><path class="g" d="M323.72,475.59v19.3c0,8.52-7.1,15.38-15.7,14.96-8.06-.37-14.26-7.31-14.26-15.39v-18.88h29.96Z"/></g><path class="c" d="M398.57,430.07c-1.36,0-2.73-.39-3.94-1.22-10.46-7.11-19.95-15.38-28.22-24.58-2.59-2.89-2.35-7.33,.53-9.92,2.89-2.59,7.33-2.35,9.92,.53,7.51,8.36,16.14,15.88,25.66,22.36,3.21,2.18,4.04,6.55,1.86,9.76-1.36,2-3.57,3.07-5.81,3.07Z"/><g><path class="f" d="M444.51,415.61c-.6-2.06-2.1-3.73-4.08-4.54-18.44-7.57-33.97-18.28-46.15-31.84-25.71-28.61-30.71-71-12.45-105.48,1.07-2.01,1.09-4.42,.06-6.45-1.03-2.03-2.98-3.44-5.23-3.78-27.53-4.13-46.76,3.59-57.68,10.36l-4.07-34.62c-.23-1.97-1.29-3.75-2.91-4.91-1.62-1.15-3.65-1.56-5.59-1.13-24.63,5.47-42.64,21.25-52.99,32.82l-5.56-32c-.37-2.13-1.7-3.97-3.61-4.99-1.91-1.02-4.18-1.1-6.16-.22-23.71,10.54-40.16,32.23-49.69,48.33l-6.14-36.85c-.36-2.14-1.68-3.99-3.58-5.02s-4.18-1.13-6.16-.26c-23.78,10.4-39.64,40.79-47.81,60.75l-9.8-25.73c-.85-2.22-2.77-3.87-5.09-4.37-2.32-.5-4.75,.22-6.44,1.9-19.87,19.87-27.83,41.29-31.01,55.41l-16.83-18.56c-1.51-1.67-3.73-2.51-5.97-2.26-2.24,.25-4.22,1.55-5.33,3.51-14.09,24.79-18.18,41.92-15.63,65.47,3,27.75,15.13,52.95,33.64,72.36-5.03,18.33-20.17,30.82-20.32,30.94-2.18,1.75-3.11,4.63-2.37,7.33s3.01,4.7,5.78,5.09c2.4,.34,4.77,.5,7.13,.5,20.3,0,38.49-11.71,46.14-17.4,4.43,2.14,9.01,4.05,13.74,5.69v18.83c0,12.01,9.2,21.85,20.95,22.4,6.06,.28,11.85-1.87,16.24-6.06,4.33-4.13,6.82-9.94,6.82-15.92v-12.28h14.13v11.86c0,12.01,9.2,21.85,20.95,22.4,6.06,.28,11.85-1.87,16.24-6.06,4.33-4.13,6.82-9.94,6.82-15.92v-12.28h14.13v11.86c0,12.01,9.2,21.85,20.95,22.4,6.07,.28,11.85-1.87,16.24-6.06,4.33-4.13,6.82-9.94,6.82-15.92v-12.28h14.12v11.86c0,12.01,9.2,21.85,20.95,22.4,.36,.02,.72,.03,1.07,.03,5.68,0,11.03-2.14,15.17-6.08,4.33-4.13,6.82-9.94,6.82-15.92v-12.81c28.5-2.48,56.32-13.02,80.87-30.7,20.73-14.93,31.77-29.61,31.87-29.75,1.24-1.74,1.61-3.96,1.02-6.02ZM51.8,321.23l20.25,22.33c1.95,2.14,5.01,2.86,7.71,1.83,2.7-1.03,4.5-3.63,4.52-6.53,0-.29,.45-26.94,21.58-53.09l12.49,32.78c1.08,2.82,3.84,4.66,6.86,4.52,3.02-.13,5.62-2.17,6.45-5.08,.04-.14,4.23-14.58,12.3-30.64,8.01-15.93,16.91-27.71,26.12-34.66l7.99,47.94c.52,3.11,3.05,5.5,6.19,5.83,3.14,.33,6.12-1.48,7.27-4.42,.16-.41,15.28-38.12,44.14-56.06l6.63,38.12c.5,2.87,2.72,5.14,5.58,5.69,2.87,.56,5.77-.72,7.3-3.19,.18-.3,17.3-27.44,46.72-37.54l4.56,38.8c.32,2.73,2.21,5.03,4.83,5.87,2.62,.84,5.49,.07,7.34-1.96,.17-.18,15.45-16.58,46.38-15.28-8.07,19.55-10.06,40.73-6.34,60.85-19.73-4.97-35.33-.17-44.62,4.46-4.58-12-16.21-20.55-29.81-20.55-17.58,0-31.89,14.3-31.89,31.89,0,6.35,1.87,12.27,5.08,17.25-17.07,.23-40.24,1.61-63.95,6.21-57.47,11.15-92.1,36.6-100.96,73.9-27.66-17.88-46.38-47.26-50.01-80.87-1.91-17.7,.45-30.85,9.25-48.4Zm11.48,150.73c3.67-4.87,7.43-10.94,10.22-17.98,3.64,2.98,7.46,5.76,11.44,8.33-5.44,3.47-13.13,7.57-21.66,9.65Zm134.68,28.7c-1.59,1.52-3.68,2.3-5.89,2.19-4.17-.2-7.57-3.95-7.57-8.37v-11.86h15.92v12.28c0,2.2-.88,4.24-2.47,5.76Zm116.28,0c-1.59,1.52-3.69,2.3-5.89,2.19-4.17-.2-7.57-3.95-7.57-8.37v-11.88l15.92-.05v12.35c0,2.2-.88,4.24-2.47,5.76Zm9.29-32.18l-57.94,.09c-3.88,0-7.02,3.14-7.02,7.02v19.3c0,2.2-.88,4.24-2.47,5.76-1.59,1.52-3.68,2.3-5.89,2.19-4.17-.2-7.57-3.95-7.57-8.37v-18.88c0-3.88-3.14-7.02-7.02-7.02h-81.85c-1.27,0-2.65-.03-4.21-.09-1.93-.07-3.76,.64-5.13,1.96-1.37,1.32-2.15,3.15-2.15,5.06v19.39c0,2.2-.88,4.24-2.47,5.76-1.59,1.52-3.68,2.3-5.89,2.19-4.17-.2-7.57-3.95-7.57-8.37v-23.94c0-3.1-2.03-5.83-5-6.73-5.53-1.66-10.85-3.72-15.95-6.14,13.67-77.58,153.22-73.92,175.39-72.83,1.14,.12,2.3,.19,3.47,.19,3.78,0,6.88-2.99,7.02-6.76,.14-3.77-2.73-6.98-6.49-7.27-.25-.02-1.27-.09-2.96-.18-8.69-1.19-15.41-8.66-15.41-17.68,0-9.84,8-17.84,17.84-17.84s17.84,8,17.84,17.84c0,2.73,1.6,5.2,4.07,6.35,2.47,1.15,5.41,.76,7.5-1,.83-.7,20.13-16.46,49.3-5.05,4.51,12.78,11.48,24.77,20.84,35.18,11.6,12.9,25.84,23.47,42.42,31.5-13.39,14.19-49.23,46.06-102.73,48.36Z"/><circle class="f" cx="345.95" cy="391.88" r="7.02"/></g><g><circle class="c" cx="351.51" cy="362.98" r="7.02"/><circle class="c" cx="289.71" cy="347.06" r="7.02"/></g></g></svg>