<svg id="Layer_1" data-name="Layer 1" xmlns="http://www.w3.org/2000/svg" viewBox="0 0 517.8 115.03"><defs><style>.cls-1{fill:#e7aa3c;}.cls-2{fill:#f9dcb2;}.cls-3{fill:#b3b3b3;}.cls-4{fill:#999;}.cls-5{fill:#ddbb8e;}.cls-6{fill:#fff;}.cls-7{fill:#333;}</style></defs><path class="cls-1" d="M211.47,37.36c-1.83,4.56-3.41,9.17-5.09,13.78-1.25,3.46-2.6,6.77-3.12,7.34a3.32,3.32,0,0,1-2.4,1.06c-1.3,0-4.47-1.58-4-3.7.1-.48.82-2.68,1.2-4l-4.41.72c-.1.29-.53,1.63-.63,2s-.14.77-.19,1.1a3.17,3.17,0,0,1-3.26,2.83c-1.16,0-3.51-.52-4-2.25a6.79,6.79,0,0,1,.19-2.83c1-4.76,5.14-16.71,7.11-18.63a3.31,3.31,0,0,1,2.3-.91c1.92,0,4.08,1.77,3.75,3.69-.34,2.07-2.16,6.58-3,8.89,1.49-.24,3.22-.53,4.47-.63a47.59,47.59,0,0,1,2.06-5.9c1.3-3.65,3-8,3.84-9.32a3.22,3.22,0,0,1,2.59-1.29c1.49,0,4.71,1.39,4.18,3.74A37.46,37.46,0,0,1,211.47,37.36Z"/><path class="cls-1" d="M236,33.09c-2.73.53-5.47.86-8.16,1.49-1.2,2.45-3.5,7.87-4.94,11.23a18.25,18.25,0,0,1,5-.91c3.07,0,6.91.67,6.48,2.5-.72,1.87-3.79,3.07-5.28,3.07h-.48c-1.68,0-5.71,1.15-7.63,1.68-.05.14-.05.24-.1.38-.14.72-.86,2.64-1.05,3.31a27.45,27.45,0,0,1,5.8-1.05c1.83,0,5.86,1.92,5.62,3-.58,2.79-10,4.47-12.67,5.14a9.86,9.86,0,0,1-2.21.38c-5,0-4.13-5.95-3.41-9.36,1.54-7.15,4.8-14.35,8-21.26a7.13,7.13,0,0,1,.05-1.78,3.12,3.12,0,0,1,2.68-2.5c2.5-.33,5-.81,7.16-1.24a36.34,36.34,0,0,1,5.66-.72c1.78,0,6,2,5.52,3.84C241.85,31,239.16,32.47,236,33.09Z"/><path class="cls-1" d="M242.57,57.48a7.48,7.48,0,0,1-1.4.19c-2.35,0-2.88-1.73-2.54-3.22a6.8,6.8,0,0,1,.62-1.73,10.66,10.66,0,0,1,.29-4,69.72,69.72,0,0,1,5-14c-.92-.86-1.78-2.06-1.64-2.69a3,3,0,0,1,3-2.11c2.83-.14,5.76-.24,8.59-.24,8.88,0,18.15.77,20.65,2.59,1.82,1.3,4,3,3.36,6.2C276.94,45.52,243.62,57.24,242.57,57.48Zm12.24-21.89a16.63,16.63,0,0,0-3.65.19c-.38.19-2.45,6.43-3.55,11.47-.1.43-.19.91-.24,1.3,5.37-1.83,22.61-8,23.81-11.19C269.35,36.5,260.71,35.59,254.81,35.59Z"/><path class="cls-1" d="M304.39,47.88c-8.54,6.38-17.23,7.58-20.45,7.58a8,8,0,0,1-8.11-5.86,3.57,3.57,0,0,1,0-1.72c1.54-7.2,17.38-17.67,23.81-17.67,1.68,0,5.47,1.68,5,3.65-.29,1.39-1.87,2.3-3.7,2.69-5.23,1.05-11.9,3.89-15.89,7.39-1.68,1.49-3.4,3.17-3.07,4.9.1.57,1.25,1,2.35,1,5.43,0,11.57-2.45,12.87-3.41l-7.34.29c-1,0-3.94-.19-3.61-1.82.15-.58,1-1.15,1.45-1.49,2.83-1.82,7.77-2.54,11.71-2.54,1.29,0,6.77,2.11,6.14,5.18A3.09,3.09,0,0,1,304.39,47.88Z"/><path class="cls-1" d="M330.36,33.09c-2.74.53-5.47.86-8.16,1.49-1.2,2.45-3.51,7.87-4.95,11.23a18.32,18.32,0,0,1,5-.91c3.07,0,6.91.67,6.48,2.5-.72,1.87-3.8,3.07-5.28,3.07H323c-1.68,0-5.72,1.15-7.64,1.68,0,.14,0,.24-.09.38-.15.72-.87,2.64-1.06,3.31A27.54,27.54,0,0,1,320,54.79c1.82,0,5.86,1.92,5.62,3-.58,2.79-10,4.47-12.68,5.14a9.77,9.77,0,0,1-2.2.38c-5.05,0-4.13-5.95-3.41-9.36,1.53-7.15,4.8-14.35,8-21.26a7.64,7.64,0,0,1,.05-1.78,3.15,3.15,0,0,1,2.69-2.5c2.5-.33,5-.81,7.15-1.24a36.45,36.45,0,0,1,5.67-.72c1.77,0,6.05,2,5.52,3.84C336.22,31,333.53,32.47,330.36,33.09Z"/><path class="cls-1" d="M361.37,43.94c-.72,2.06-4.42,13.34-5.71,14.69a3.31,3.31,0,0,1-2.36,1c-1.58,0-4.22-1.78-4-3.46a31.63,31.63,0,0,1,1.53-3.79l.53-1.44-11.85,1.34c-.63,1.83-1.16,5.91-4.28,5.91a3.67,3.67,0,0,1-3.45-2.26,13,13,0,0,1,.43-4.51c1-4.66,3.6-13.44,5.42-15.27a3.39,3.39,0,0,1,2.31-.91c1.73,0,4.22,1.63,3.79,3.74-.19.92-1.49,4.71-2.35,7.3,3.5-.62,9.31-1.53,12.29-1.77.28-1.44,1.63-5.24,2.06-6.49a31.23,31.23,0,0,1,2.5-5.85,3.27,3.27,0,0,1,2.54-1.25c1.87,0,4.18,1.78,3.75,3.89C364.3,36,362.9,39.76,361.37,43.94Z"/><path class="cls-1" d="M385.65,43.94C384.07,48.74,377,54.6,371.4,54.6c-5.23,0-7.59-3.94-6.77-7.83,1-4.51,7-12.53,14.54-12.53a4.65,4.65,0,0,1,3.22,1c2.3.24,4.85,1.92,3.79,6.87A10.75,10.75,0,0,1,385.65,43.94Zm-6-3.55c-3-.1-8.49,4.8-9.07,7.49-.05.14-.14.38.1.38a11.39,11.39,0,0,0,5.57-2.54,20.51,20.51,0,0,0,3.55-5.33Z"/><path class="cls-1" d="M417.67,47.88c-8.54,6.38-17.23,7.58-20.45,7.58a8,8,0,0,1-8.11-5.86,3.34,3.34,0,0,1,0-1.72c1.53-7.2,17.38-17.67,23.81-17.67,1.68,0,5.47,1.68,5,3.65-.29,1.39-1.87,2.3-3.7,2.69-5.23,1.05-11.9,3.89-15.89,7.39-1.68,1.49-3.4,3.17-3.07,4.9.1.57,1.25,1,2.35,1,5.43,0,11.57-2.45,12.87-3.41l-7.35.29c-1,0-3.93-.19-3.6-1.82.15-.58,1-1.15,1.44-1.49,2.84-1.82,7.78-2.54,11.72-2.54,1.29,0,6.77,2.11,6.14,5.18A3.09,3.09,0,0,1,417.67,47.88Z"/><path class="cls-1" d="M452.85,38.51c-1.29,0-1.53-.62-3.12-.62-5.08,0-16.41,3.17-21,5.38,5.37,1.92,12.14,2.4,13.53,3.36a5.53,5.53,0,0,1,2,4.85A4,4,0,0,1,442.44,54c-2.07,1.2-11.57,4.71-13.83,4.71-2.45,0-5.52-2.21-5.28-3.22a2.21,2.21,0,0,1,.77-1.3c1.44-1.44,4.22-.48,12.72-3.21-3.79-1-12.77-1.73-14.88-4.71a4,4,0,0,1-.29-3,6.86,6.86,0,0,1,2.59-4.18c3.12-2.11,16.95-7.49,26.07-7.49,3.07,0,5.52.91,6.86,3.31a1.78,1.78,0,0,1,.2,1.11C457,37.6,454.05,38.51,452.85,38.51Z"/><path class="cls-1" d="M487.56,43.94C486,48.74,478.92,54.6,473.3,54.6c-5.23,0-7.59-3.94-6.77-7.83,1-4.51,7-12.53,14.55-12.53a4.64,4.64,0,0,1,3.21,1c2.31.24,4.85,1.92,3.79,6.87A10.66,10.66,0,0,1,487.56,43.94Zm-6-3.55c-3-.1-8.5,4.8-9.08,7.49-.05.14-.14.38.1.38a11.35,11.35,0,0,0,5.57-2.54,20.51,20.51,0,0,0,3.55-5.33Z"/><path class="cls-1" d="M515.83,32.23c-1.68.62-4.61.72-6.24,1a27.71,27.71,0,0,0-3.55.62,93.59,93.59,0,0,0-5.33,13.25,42.35,42.35,0,0,1,7.29-1c1.88,0,5.76.43,5.33,2.5a2.72,2.72,0,0,1-1.92,2,59.54,59.54,0,0,1-6.77,1.16c-2.06.28-4.17.57-5.66.81-.53,1.49-2.35,6.72-3.17,7.78a5.34,5.34,0,0,1-3.94,2.21,3.47,3.47,0,0,1-1.2-.24c-.48-.24-.86-3.7,0-7.59a67.49,67.49,0,0,1,2-7.68c.92-2.69,8-19.2,8.74-19.34A52.77,52.77,0,0,1,512.18,26c1.87,0,4.27.44,5.23,2.36a2.51,2.51,0,0,1,.34,1.72A3.06,3.06,0,0,1,515.83,32.23Z"/><path class="cls-1" d="M210.26,81.65c-.86,2-2,4.47-3.07,7.44-.57,1.54-3.69,2.5-4.94,2.5a2.77,2.77,0,0,1-1.63-.48,43.93,43.93,0,0,1-4-4.47c-.57-.72-1.15-1.44-1.77-2.16l-.58,1.78a42.73,42.73,0,0,1-1.82,4.8,3.26,3.26,0,0,1-2.79,1.68,3.37,3.37,0,0,1-3.17-3.84c.34-1.63,3.75-10.85,4.57-13.15.52-1.59,2.88-2.16,3.84-2.16,1.77,0,2.4,1.2,3.26,2.2,1.58,2,2.93,4.9,4.56,6.82.67-1.53,2.64-6.77,3.36-7.58a3.93,3.93,0,0,1,2.88-1.25c1.49,0,3.7,1,3.17,3.26A27.64,27.64,0,0,1,210.26,81.65Z"/><path class="cls-1" d="M236.42,71.09c-2.73.53-5.47.86-8.16,1.49-1.2,2.45-3.5,7.87-4.94,11.23a18.25,18.25,0,0,1,5-.91c3.07-.05,6.91.67,6.48,2.5-.72,1.87-3.79,3.07-5.28,3.07H229c-1.68,0-5.71,1.15-7.63,1.68-.05.14-.05.24-.1.38-.14.72-.86,2.64-1.05,3.31a27.42,27.42,0,0,1,5.81-1c1.82,0,5.85,1.92,5.61,3-.57,2.79-10,4.47-12.67,5.14a9.86,9.86,0,0,1-2.21.38c-5,0-4.13-6-3.41-9.36,1.54-7.15,4.8-14.35,8-21.26a7.13,7.13,0,0,1,0-1.78,3.13,3.13,0,0,1,2.69-2.5c2.49-.33,5-.81,7.15-1.24a36.34,36.34,0,0,1,5.66-.72c1.78,0,6.05,2,5.52,3.84C242.28,69,239.59,70.47,236.42,71.09Z"/><path class="cls-1" d="M265.46,92.79c-.91,1.15-3.55,3.21-5.28,3.21-1.1,0-2.68-4.17-3-5.9-.29-1.49-.38-4.08-.67-5.62-1.54,1.88-8,10.28-9.17,10.9a8.14,8.14,0,0,1-3.55,1c-.53,0-2.4-.14-2.4-1.87,0-1.49.33-6.39.52-11.23.2-5,.24-9.51,0-10.47a1.74,1.74,0,0,1,0-.82c.34-1.72,3.08-2.68,4.66-2.68a3.1,3.1,0,0,1,2.88,1.34c.87,1.54,1,8.83.91,14,1.4-1.73,2.93-4.42,4.18-6.19.58-.77,1-1.3,1.1-1.45a7.06,7.06,0,0,1,4.18-1.39c2.69,0,3,1.49,3.55,3.32s.72,4.51,1,6.33c2.26-3.31,4.56-7.68,6.72-11.09,1.44-2.25,2.55-4.65,5.86-4.65.86,0,2.59.48,2.21,2.2C278.76,73.59,267.82,89.91,265.46,92.79Z"/><path class="cls-1" d="M311.74,74.12c-2.79.52-5.86,1-8.07,1.53-.67,1.73-1.49,4-2.16,6a33.5,33.5,0,0,1,7.15-1.15c3.08,0,6.39,1.73,6,3.55-.76,1.87-3.74,2.59-5.23,2.59-.14,0-.29,0-.43,0a62.2,62.2,0,0,0-9.55,1.88,17.63,17.63,0,0,0-.44,1.92c-.09.43-.24.86-.33,1.24a14.27,14.27,0,0,1,4.13-.91c1.82,0,5.85,1.92,5.61,3-.52,2.59-8.69,4.46-11.23,5.13a9,9,0,0,1-2.11.29c-5.57,0-4.9-5.18-4.08-9.22a89.84,89.84,0,0,1,5.81-16.41c0-.24,0-.63.09-1a4.44,4.44,0,0,1,4.66-3.41c.38,0,.81,0,1.2.09A51.8,51.8,0,0,1,314.71,67c1.68,0,5.86,2,5.38,3.79C319.94,71.33,316.25,73.25,311.74,74.12Z"/><path class="cls-1" d="M351.05,74.69c-2.11,5.52-4.51,11-6.05,16.56-.48,1.92-4.08,3.12-5.62,3.12a2.92,2.92,0,0,1-1.77-.48c-1-.72-3.32-3.84-5.52-6.91C331,85.54,330,84.1,329,82.66c-1.44,4.61-3.41,10.7-4.13,12.43a3.31,3.31,0,0,1-3,2.07c-2.59,0-4-3.08-3.65-4.76.53-2.4,5.72-15.89,6.53-19.05.48-1.92,3.12-2.69,4.42-2.69a3,3,0,0,1,1.92.57c.43.44,3,3.94,5.52,7.49,1.25,1.73,2.5,3.51,3.55,5,1.49-4.9,4-12.82,5.28-15.32a3.4,3.4,0,0,1,3-1.72,4,4,0,0,1,3.84,4.7A22.38,22.38,0,0,1,351.05,74.69Z"/><path class="cls-1" d="M381.67,85.88c-8.54,6.38-17.23,7.58-20.45,7.58a8,8,0,0,1-8.11-5.86,3.34,3.34,0,0,1,0-1.72c1.53-7.2,17.38-17.67,23.81-17.67,1.68,0,5.47,1.68,5,3.65-.29,1.39-1.87,2.3-3.7,2.69-5.23,1-11.9,3.89-15.89,7.39-1.68,1.49-3.4,3.17-3.07,4.9.1.57,1.25,1,2.35,1,5.43,0,11.57-2.45,12.87-3.41l-7.35.29c-1,0-3.93-.19-3.6-1.82.15-.58,1-1.15,1.44-1.49,2.84-1.82,7.78-2.54,11.72-2.54,1.29,0,6.77,2.11,6.14,5.18A3.09,3.09,0,0,1,381.67,85.88Z"/><path class="cls-1" d="M403.17,97.25c-1.82,1.64-12.57,5.72-14.78,5.72a6.37,6.37,0,0,1-4.08-1.92c-.48-.48-.43-1.54-.24-2.55,1.1-5.23,7.92-27.27,10.46-31.54a4,4,0,0,1,3.31-1.82c2.26,0,3.65,1.63,3.22,3.65-.77,3.64-7.15,19.34-8.69,26.45,2.79-.72,6.24-1.73,7.39-2.12a5.85,5.85,0,0,1,1.49-.24c1,0,3.41.63,2.93,2.79A2.9,2.9,0,0,1,403.17,97.25Z"/><path class="cls-1" d="M429.29,95.67c-1.4,0-3.32-.53-3.89-1.87-.34-.87,0-4.23.05-5.52-4.28,1-9.46,1.63-11.57,1.87-2.21,2.64-4.13,5.42-6.2,8.16-.33.38-4.51,3.07-5.47,3.07-1.25,0-2.45-.72-2-2.16,1.39-5.09,21.93-29.91,23.66-30.82a11.48,11.48,0,0,1,4.8-1.2c1,0,2.59.24,3.22,1.35,2,3.45,2.4,19.87,1.49,24A3.8,3.8,0,0,1,429.29,95.67ZM425.4,75.12c-1.39,1.59-3.6,4.37-5.86,7.4a45.17,45.17,0,0,1,6-1.3C425.54,79.44,425.49,76.8,425.4,75.12Z"/><path class="cls-1" d="M472.39,74.69c-2.11,5.52-4.51,11-6.05,16.56-.48,1.92-4.08,3.12-5.62,3.12a2.92,2.92,0,0,1-1.77-.48c-1-.72-3.31-3.84-5.52-6.91-1.06-1.44-2.07-2.88-3.12-4.32-1.44,4.61-3.41,10.7-4.13,12.43a3.31,3.31,0,0,1-3,2.07c-2.6,0-4-3.08-3.65-4.76C440,90,445.22,76.51,446,73.35c.48-1.92,3.12-2.69,4.41-2.69a3,3,0,0,1,1.92.57c.43.44,3,3.94,5.52,7.49,1.25,1.73,2.5,3.51,3.55,5,1.49-4.9,4-12.82,5.28-15.32a3.4,3.4,0,0,1,3-1.72,4,4,0,0,1,3.84,4.7A22.38,22.38,0,0,1,472.39,74.69Z"/><path class="cls-1" d="M479.64,95.48a7.48,7.48,0,0,1-1.4.19c-2.35,0-2.88-1.73-2.54-3.22a6.12,6.12,0,0,1,.62-1.73,10.66,10.66,0,0,1,.29-4,69.68,69.68,0,0,1,4.94-14c-.91-.86-1.77-2.06-1.63-2.69a3,3,0,0,1,3-2.11c2.83-.14,5.76-.24,8.59-.24,8.88,0,18.15.77,20.64,2.59,1.83,1.3,4,3,3.36,6.2C514,83.52,480.69,95.24,479.64,95.48Zm12.24-21.89a16.57,16.57,0,0,0-3.65.19c-.39.19-2.45,6.43-3.55,11.47a11.26,11.26,0,0,0-.24,1.3c5.37-1.83,22.61-8,23.81-11.19C506.42,74.5,497.78,73.59,491.88,73.59Z"/><path class="cls-2" d="M163.33,75.45c-.21.3-16.78,21.88-45.44,23.09v7.72a6,6,0,0,1-6.26,6A6.08,6.08,0,0,1,106,106.1V98.57H94.73v7.69a6,6,0,0,1-6.27,6,6.08,6.08,0,0,1-5.68-6.13V98.57H50.17c-.59,0-1.19,0-1.78,0v7.72a6,6,0,0,1-6.26,6,6.08,6.08,0,0,1-5.68-6.13V96.56A47,47,0,0,1,27.85,93c2.28-21.57,25.21-29.45,45-32.19A156.71,156.71,0,0,1,101,59.62a8.77,8.77,0,0,0,1.15.07L101,59.62a9.91,9.91,0,1,1,11.06-9.84s9.56-8.22,23.68-2a39,39,0,0,0,8.16,14.26A52.36,52.36,0,0,0,163.33,75.45Z"/><path class="cls-3" d="M138.57,16.83a40.16,40.16,0,0,0-2.81,31c-14.12-6.23-23.68,2-23.68,2A9.91,9.91,0,1,0,101,59.62c-9.12-.48-69.4-2.29-73.17,33.4A47.41,47.41,0,0,1,16.77,84.9,46.5,46.5,0,0,1,3.07,56.65c-.92-8.53.45-14.85,5.87-24.4L19.68,44.08s0-14,12.38-26.42L38.67,35S45.55,11.06,58.76,5.28l3.85,23.11S70,9.4,84.9,2.8l3.31,19S96.74,8,111.6,4.72l2.2,18.72s6.4-7,19.19-7A38.5,38.5,0,0,1,138.57,16.83Z"/><path class="cls-4" d="M22.69,62.33c-.09-8.58,1.89-14.74,8.22-23.71l9.53,12.82s1.37-14,14.91-25.09l4.88,17.9s9.18-23.16,22.89-27.62L84.7,40S94,21.84,109.38,16.71l1.44,19.22s9.83-12.86,24.94-14.7l.05,2.16a40.22,40.22,0,0,1,2.76-6.56,38.5,38.5,0,0,0-5.58-.42c-12.79,0-19.19,7-19.19,7L111.6,4.72C96.74,8,88.21,21.79,88.21,21.79L84.9,2.8C70,9.4,62.61,28.39,62.61,28.39L58.76,5.28C45.55,11.06,38.67,35,38.67,35L32.06,17.66C19.68,30.05,19.68,44.08,19.68,44.08L8.94,32.25C3.52,41.8,2.15,48.12,3.07,56.65A46.5,46.5,0,0,0,16.77,84.9,47.41,47.41,0,0,0,27.85,93a28.92,28.92,0,0,1,1.61-7A46.26,46.26,0,0,1,22.69,62.33Z"/><path class="cls-2" d="M71.56,98.57v7.69a6,6,0,0,1-6.26,6,6.08,6.08,0,0,1-5.68-6.13V98.57Z"/><path class="cls-5" d="M94.73,98.57v7.69a6,6,0,0,1-6.27,6,6.08,6.08,0,0,1-5.68-6.13V98.57H50.17c-.59,0-1.19,0-1.78,0v7.72a6,6,0,0,1-6.26,6,6.08,6.08,0,0,1-5.68-6.13V96.56A47.69,47.69,0,0,1,27.85,93c2.28-21.57,25.21-29.45,45-32.19h0S55.08,65.92,59.56,82.24,94.73,98.57,94.73,98.57Z"/><path class="cls-5" d="M16.77,84.9A47.41,47.41,0,0,0,27.85,93s-10.06,8.77-20.51,7.27C7.34,100.29,15,94.14,16.77,84.9Z"/><path class="cls-5" d="M117.89,98.57v7.69a6,6,0,0,1-6.26,6A6.08,6.08,0,0,1,106,106.1V98.57Z"/><path class="cls-6" d="M147.72,80.43a2.76,2.76,0,0,1-1.57-.48,61.81,61.81,0,0,1-11.25-9.8,2.8,2.8,0,0,1,4.17-3.74,56.37,56.37,0,0,0,10.22,8.91,2.79,2.79,0,0,1-1.57,5.11Z"/><path class="cls-7" d="M166,74.67a2.81,2.81,0,0,0-1.62-1.81A49.72,49.72,0,0,1,146,60.18a37.11,37.11,0,0,1-5-42,2.79,2.79,0,0,0-2-4.07c-11-1.65-18.64,1.43-23,4.12L114.38,4.4A2.8,2.8,0,0,0,111,2c-9.81,2.18-17,8.47-21.11,13.08L87.66,2.32a2.82,2.82,0,0,0-1.44-2A2.78,2.78,0,0,0,83.77.24c-9.45,4.2-16,12.85-19.8,19.26L61.52,4.81a2.81,2.81,0,0,0-1.43-2,2.78,2.78,0,0,0-2.45-.1C48.16,6.86,41.84,19,38.58,26.92l-3.9-10.26a2.8,2.8,0,0,0-4.6-1A45.27,45.27,0,0,0,17.73,37.76L11,30.37a2.8,2.8,0,0,0-4.51.49C.9,40.74-.73,47.57.28,57A49.45,49.45,0,0,0,13.69,85.79c-2,7.3-8,12.28-8.1,12.32a2.8,2.8,0,0,0,1.36,5,19.47,19.47,0,0,0,2.84.2c8.09,0,15.34-4.66,18.38-6.93a51.68,51.68,0,0,0,5.48,2.26v7.51A8.84,8.84,0,0,0,42,115a8.67,8.67,0,0,0,6.47-2.41,8.81,8.81,0,0,0,2.72-6.35v-4.89h5.63v4.73A8.84,8.84,0,0,0,65.17,115a8.69,8.69,0,0,0,6.47-2.41,8.81,8.81,0,0,0,2.72-6.35v-4.89H80v4.72A8.84,8.84,0,0,0,88.33,115a8.73,8.73,0,0,0,6.48-2.41,8.84,8.84,0,0,0,2.71-6.35v-4.89h5.63v4.72A8.84,8.84,0,0,0,111.5,115h.43a8.69,8.69,0,0,0,6-2.42,8.81,8.81,0,0,0,2.72-6.35v-5.1a64.86,64.86,0,0,0,32.23-12.24,63.17,63.17,0,0,0,12.7-11.85A2.8,2.8,0,0,0,166,74.67ZM9.53,37.06,17.61,46a2.8,2.8,0,0,0,4.87-1.87c0-.12.18-10.74,8.6-21.16l5,13.06a2.8,2.8,0,0,0,5.31-.22,78.34,78.34,0,0,1,4.9-12.21c3.19-6.35,6.74-11,10.41-13.81l3.18,19.1a2.8,2.8,0,0,0,5.37.56c.06-.16,6.08-15.19,17.59-22.33l2.64,15.19a2.79,2.79,0,0,0,5.13,1c.08-.12,6.9-10.93,18.62-15L111,23.77a2.8,2.8,0,0,0,4.85,1.55c.07-.07,6.16-6.61,18.48-6.09a43.06,43.06,0,0,0-2.52,24.25,25.45,25.45,0,0,0-17.78,1.78A12.7,12.7,0,1,0,91.49,56.65,147.26,147.26,0,0,0,66,59.12c-22.9,4.45-36.7,14.59-40.23,29.45A44,44,0,0,1,5.85,56.35C5.09,49.3,6,44.06,9.53,37.06Zm4.58,60.06A31.06,31.06,0,0,0,18.18,90a50.12,50.12,0,0,0,4.56,3.32A29.7,29.7,0,0,1,14.11,97.12Zm53.67,11.44a3.15,3.15,0,0,1-2.35.87,3.3,3.3,0,0,1-3-3.33v-4.73h6.35v4.89A3.17,3.17,0,0,1,67.78,108.56Zm46.33,0a3.14,3.14,0,0,1-2.35.87,3.29,3.29,0,0,1-3-3.33v-4.74l6.34,0v4.92A3.17,3.17,0,0,1,114.11,108.56Zm3.7-12.82-23.09,0a2.8,2.8,0,0,0-2.79,2.8v7.69a3.18,3.18,0,0,1-3.33,3.17,3.29,3.29,0,0,1-3-3.33V98.57a2.8,2.8,0,0,0-2.8-2.8H50.17l-1.68,0a2.74,2.74,0,0,0-2,.78,2.81,2.81,0,0,0-.86,2v7.72a3.17,3.17,0,0,1-1,2.3,3.14,3.14,0,0,1-2.35.87,3.29,3.29,0,0,1-3-3.33V96.56a2.79,2.79,0,0,0-2-2.68,45.33,45.33,0,0,1-6.35-2.45C36.35,60.52,92,62,100.79,62.41a12.63,12.63,0,0,0,1.38.07,2.79,2.79,0,0,0,.21-5.58l-1.17-.08a7.11,7.11,0,1,1,8.07-7,2.81,2.81,0,0,0,4.61,2.13c.33-.28,8-6.56,19.65-2a41.92,41.92,0,0,0,8.3,14,54.37,54.37,0,0,0,16.91,12.55C153.41,82.12,139.13,94.82,117.81,95.74Z"/><circle class="cls-7" cx="126.75" cy="65.22" r="2.8"/><circle class="cls-6" cx="128.97" cy="53.7" r="2.8"/><circle class="cls-6" cx="104.34" cy="47.36" r="2.8"/></svg>