<?xml version="1.0" standalone="no"?>
<!DOCTYPE svg PUBLIC "-//W3C//DTD SVG 20010904//EN"
 "http://www.w3.org/TR/2001/REC-SVG-20010904/DTD/svg10.dtd">
<svg version="1.0" xmlns="http://www.w3.org/2000/svg"
 width="700.000000pt" height="700.000000pt" viewBox="0 0 700.000000 700.000000"
 preserveAspectRatio="xMidYMid meet">
<metadata>
Created by potrace 1.14, written by Peter Selinger 2001-2017
</metadata>
<g transform="translate(0.000000,700.000000) scale(0.100000,-0.100000)"
fill="#000000" stroke="none">
<path d="M3499 5899 c-58 -28 -166 -90 -199 -116 -233 -179 -370 -324 -526
-558 -43 -65 -79 -114 -81 -109 -1 5 -13 79 -28 164 -14 85 -27 164 -29 175
-2 11 -7 42 -10 68 -4 27 -9 58 -12 70 -2 12 -6 38 -9 58 -18 122 -62 175
-137 165 -105 -15 -273 -138 -431 -317 -114 -128 -310 -462 -396 -674 -16 -38
-12 -45 -105 198 -41 109 -82 210 -91 223 -33 51 -108 64 -161 29 -74 -48
-279 -321 -366 -485 -58 -111 -130 -287 -143 -351 -15 -73 -37 -116 -47 -90
-4 11 -160 183 -244 269 -53 54 -65 62 -98 62 -79 0 -97 -19 -195 -216 -94
-188 -162 -393 -179 -538 -13 -115 -4 -467 13 -496 1 -3 6 -27 9 -55 13 -94
69 -287 121 -415 34 -82 111 -236 136 -271 10 -15 19 -30 19 -33 0 -20 157
-227 246 -325 l23 -24 -24 -62 c-60 -159 -151 -293 -293 -429 -67 -64 -83
-109 -57 -165 25 -57 65 -73 188 -76 56 -1 117 1 137 6 19 4 54 10 78 13 24 3
47 8 51 10 4 3 19 7 33 10 82 14 289 113 417 197 41 27 77 49 81 49 4 0 34
-12 66 -26 69 -30 88 -38 130 -54 l31 -11 1 -188 c1 -200 9 -242 58 -328 29
-51 100 -114 158 -142 35 -16 135 -38 156 -34 3 0 29 4 58 7 103 12 208 86
260 183 40 76 43 93 46 248 l3 130 59 5 c32 3 86 3 119 0 l60 -5 1 -125 c0
-150 17 -215 73 -290 66 -87 172 -148 268 -153 186 -9 361 128 388 303 4 25 7
96 7 158 l-1 112 50 1 c27 0 69 0 94 0 104 0 93 18 97 -143 4 -119 8 -152 27
-199 64 -158 242 -257 404 -226 93 19 164 61 222 131 61 75 77 131 83 291 2
77 6 142 8 144 3 3 12 4 155 2 l75 -1 1 -129 c1 -176 27 -253 117 -342 30 -30
120 -85 128 -78 2 1 13 -3 26 -10 12 -6 50 -12 85 -13 108 -1 192 31 270 106
86 83 113 169 113 353 -1 68 1 123 4 124 3 0 23 2 45 5 22 2 69 8 105 14 36 6
79 13 95 16 17 3 77 16 135 30 478 113 952 380 1320 745 113 111 198 212 206
245 15 59 -28 128 -94 148 -46 15 -240 116 -327 171 -134 85 -227 159 -340
270 -258 255 -406 543 -458 895 -14 90 -16 352 -3 441 18 129 84 346 139 454
42 83 49 120 31 165 -19 47 -56 68 -140 77 -88 10 -321 10 -399 0 -144 -18
-349 -84 -461 -147 -61 -35 -60 -35 -60 -12 -1 17 -11 110 -19 172 -3 19 -7
55 -9 80 -7 64 -16 141 -21 170 -2 14 -6 54 -10 90 -12 113 -60 159 -151 146
-116 -16 -333 -107 -484 -204 -69 -44 -205 -146 -230 -171 -78 -81 -177 -169
-177 -159 0 7 -6 45 -13 83 -7 39 -14 79 -15 90 -2 11 -12 72 -24 136 -11 64
-23 134 -26 155 -9 62 -33 118 -57 133 -49 31 -84 30 -149 0z"/>
</g>
</svg>
